<?xml version="1.0" encoding="UTF-8" standalone="no"?>
<svg
   xmlns:dc="http://purl.org/dc/elements/1.1/"
   xmlns:cc="http://creativecommons.org/ns#"
   xmlns:rdf="http://www.w3.org/1999/02/22-rdf-syntax-ns#"
   xmlns:svg="http://www.w3.org/2000/svg"
   xmlns="http://www.w3.org/2000/svg"
   xmlns:sodipodi="http://sodipodi.sourceforge.net/DTD/sodipodi-0.dtd"
   xmlns:inkscape="http://www.inkscape.org/namespaces/inkscape"
   width="210mm"
   height="297mm"
   viewBox="0 0 210 297"
   version="1.1"
   id="svg8"
   inkscape:version="1.0.2-2 (e86c870879, 2021-01-15)"
   sodipodi:docname="cw4.svg">
  <defs
     id="defs2">
    <inkscape:perspective
       sodipodi:type="inkscape:persp3d"
       inkscape:vp_x="-29.607578 : 175.43636 : 1"
       inkscape:vp_y="0 : 779.57182 : 0"
       inkscape:vp_z="193.25015 : 180.3289 : 1"
       inkscape:persp3d-origin="104.6138 : 107.18065 : 1"
       id="perspective18" />
  </defs>
  <sodipodi:namedview
     id="base"
     pagecolor="#ffffff"
     bordercolor="#666666"
     borderopacity="1.0"
     inkscape:pageopacity="0.0"
     inkscape:pageshadow="2"
     inkscape:zoom="0.7"
     inkscape:cx="889.23295"
     inkscape:cy="627.14594"
     inkscape:document-units="mm"
     inkscape:current-layer="layer1"
     inkscape:document-rotation="0"
     showgrid="false"
     inkscape:window-width="1560"
     inkscape:window-height="1040"
     inkscape:window-x="330"
     inkscape:window-y="12"
     inkscape:window-maximized="0" />
  <metadata
     id="metadata5">
    <rdf:RDF>
      <cc:Work
         rdf:about="">
        <dc:format>image/svg+xml</dc:format>
        <dc:type
           rdf:resource="http://purl.org/dc/dcmitype/StillImage" />
        <dc:title />
      </cc:Work>
    </rdf:RDF>
  </metadata>
  <g
     inkscape:label="Warstwa 1"
     inkscape:groupmode="layer"
     id="layer1">
    <path
       sodipodi:type="star"
       style="fill:#ffff00;fill-rule:evenodd;stroke-width:0.135829"
       id="path10"
       sodipodi:sides="5"
       sodipodi:cx="46.198807"
       sodipodi:cy="53.795817"
       sodipodi:r1="39.813759"
       sodipodi:r2="19.906879"
       sodipodi:arg1="0.96176432"
       sodipodi:arg2="1.5900828"
       inkscape:flatsided="false"
       inkscape:rounded="0"
       inkscape:randomized="0"
       d="M 68.975214,86.45115 45.814897,73.698996 22.180038,85.548521 27.151126,59.581119 8.577984,40.764737 34.810602,37.468153 46.966628,13.989464 58.20819,37.919466 84.294169,42.22522 65.009218,60.311358 Z"
       inkscape:transform-center-x="-0.23727392"
       inkscape:transform-center-y="-3.5755087" />
    <path
       id="text16"
       style="font-style:normal;font-weight:normal;font-size:88.1944px;line-height:1.25;font-family:sans-serif;white-space:pre;inline-size:83.0972;fill:#008080;fill-opacity:1;stroke:none;stroke-width:0.264583"
       d="m 145.80519,20.149263 c -0.5796,-0.165939 -1.25014,-0.119191 -2.01138,0.14067 -0.76123,0.259862 -1.46926,0.803898 -2.12433,1.631681 -0.65507,0.827782 -2.08629,3.68798 -4.29334,8.580676 -2.20705,4.892696 -4.28191,9.793028 -6.22475,14.70164 -6.17232,16.030951 -10.16257,25.639085 -11.9704,28.82446 -0.77761,1.360091 -1.28077,2.44022 -1.50993,3.240627 -0.30817,1.076411 -0.24355,2.050871 0.19371,2.922619 0.42935,0.899349 1.182,1.502685 2.25841,1.810858 2.76003,0.790185 5.41966,-2.554119 7.97907,-10.033561 0.4188,-1.462815 1.18727,-3.467744 2.30465,-6.014644 1.11738,-2.546902 2.35245,-4.567379 3.70588,-6.061236 1.23066,-0.543542 2.17557,-0.66141 2.83397,-0.353461 2.46755,2.020399 4.94845,4.77644 7.44281,8.267781 l 7.38871,9.864868 c 4.63426,6.134638 7.89915,10.115346 9.79499,11.942205 1.46758,1.387037 2.84438,2.370952 4.13189,2.961081 0.0279,-0.01564 0.0588,-0.02382 0.0914,-0.01521 0.0436,0.01139 0.0861,0.04708 0.1182,0.105333 0.3098,0.132513 0.61593,0.249438 0.91515,0.335105 1.57321,0.450405 2.95356,0.32282 4.14093,-0.382427 1.22288,-0.724947 2.08696,-1.970512 2.59268,-3.73693 0.13433,-0.4692 0.20187,-0.913094 0.2021,-1.331106 -3.11082,-1.129516 -5.22612,-2.033385 -6.34571,-2.71227 -1.09199,-0.670982 -2.77672,-2.347997 -5.05462,-5.030803 -2.27,-2.710408 -5.49154,-6.947467 -9.6646,-12.711166 -3.96028,-5.463879 -6.54539,-8.951165 -7.75523,-10.462178 7.3604,-3.38745 11.6364,-5.388403 12.82767,-6.002948 0.67454,-0.374269 2.16529,-1.09736 4.47281,-2.168751 10.49237,-4.939503 16.11759,-8.73379 16.87617,-11.383414 0.29237,-1.021211 0.0607,-2.192628 -0.69573,-3.514107 -0.74854,-1.34908 -1.6056,-2.162022 -2.57161,-2.438587 -0.88321,-0.252859 -2.83799,1.098876 -5.86425,4.054876 -2.13847,2.045523 -4.29282,3.727982 -6.46245,5.047889 -2.16174,1.292305 -5.39231,2.980737 -9.69185,5.064534 -1.31747,0.63814 -2.40007,1.238823 -3.24823,1.802288 -1.34518,0.839242 -3.09687,1.741102 -5.25448,2.7061 -2.12211,0.945296 -4.08613,1.756863 -5.89262,2.434174 -1.77098,0.657607 -2.81428,1.016073 -3.1298,1.075055 -0.30761,0.03138 -0.46347,0.0015 -0.46737,-0.08919 l 0.0949,-0.331367 c 0.87654,-2.0186 1.70167,-4.066856 2.47571,-6.144664 2.39726,-6.60013 5.67033,-13.546781 9.81888,-20.840025 0.9481,-3.103025 0.13882,-5.021598 -2.42801,-5.75647 z" />
    <g
       sodipodi:type="inkscape:box3d"
       id="g104"
       style="fill:#008080"
       inkscape:perspectiveID="#perspective18"
       inkscape:corner0="1.0836831 : 0.11628879 : 0 : 1"
       inkscape:corner7="-0.24853535 : 0.029901081 : 0.25 : 1">
      <path
         sodipodi:type="inkscape:box3dside"
         id="path116"
         style="fill:#e9e9ff;fill-rule:evenodd;stroke:none;stroke-width:1;stroke-linejoin:round"
         inkscape:box3dsidetype="11"
         d="M 46.867594,97.077972 155.13676,83.612211 V 150.85914 L 46.867594,125.93597 Z"
         points="155.13676,83.612211 155.13676,150.85914 46.867594,125.93597 46.867594,97.077972 " />
      <path
         sodipodi:type="inkscape:box3dside"
         id="path106"
         style="fill:#353564;fill-rule:evenodd;stroke:none;stroke-width:1;stroke-linejoin:round"
         inkscape:box3dsidetype="6"
         d="m 29.894179,96.450473 v 32.320377 l 16.973415,-2.83488 V 97.077972 Z"
         points="29.894179,128.77085 46.867594,125.93597 46.867594,97.077972 29.894179,96.450473 " />
      <path
         sodipodi:type="inkscape:box3dside"
         id="path114"
         style="fill:#afafde;fill-rule:evenodd;stroke:none;stroke-width:1;stroke-linejoin:round"
         inkscape:box3dsidetype="13"
         d="m 29.894179,128.77085 114.197581,38.24046 11.045,-16.15217 -108.269166,-24.92317 z"
         points="144.09176,167.01131 155.13676,150.85914 46.867594,125.93597 29.894179,128.77085 " />
      <path
         id="path108"
         style="fill:#4d4d9f;fill-rule:evenodd;stroke:none;stroke-width:3.77953;stroke-linejoin:round"
         transform="scale(0.26458333)"
         d="m 563.16992,346.79297 -431.61328,72.0293 64.15234,2.37304 409.20704,-50.89453 z" />
      <path
         sodipodi:type="inkscape:box3dside"
         id="path112"
         style="fill:#d7d7ff;fill-rule:evenodd;stroke:none;stroke-width:1;stroke-linejoin:round"
         inkscape:box3dsidetype="14"
         d="m 144.09176,77.392424 v 89.618886 l 11.045,-16.15217 V 83.612211 Z"
         points="144.09176,167.01131 155.13676,150.85914 155.13676,83.612211 144.09176,77.392424 " />
      <path
         id="path110"
         style="fill:#8686bf;fill-rule:evenodd;stroke:none;stroke-width:3.77953;stroke-linejoin:round"
         transform="scale(0.26458333)"
         d="m 563.16992,346.79297 -431.61328,72.0293 v 122.15625 l 431.61328,144.53125 z" />
    </g>
    <rect
       style="fill:#800080;stroke-width:0.177024"
       id="rect132"
       width="51.315746"
       height="37.685001"
       x="38.21954"
       y="182.54509" />
    <path
       style="fill:none;stroke:#000000;stroke-width:0.264583px;stroke-linecap:butt;stroke-linejoin:miter;stroke-opacity:1"
       d="M 46.772166,276.08943 98.889724,287.582 166.50891,251.23336 Z"
       id="path156"
       sodipodi:nodetypes="cccc" />
    <path
       style="fill:#008080;stroke-width:0.264583"
       id="path162"
       d="m 124.23947,19.61247 c 1.59316,-0.717849 3.27249,-1.225218 4.93136,-1.766822 3.04697,-0.809453 7.69271,-1.992891 -6.58858,1.64761 -0.13793,0.03517 0.27899,-0.05756 0.41991,-0.07761 0.50598,-0.07198 0.38691,-0.0499 0.91395,0.02271 0.9466,0.243454 1.59576,0.937639 2.22531,1.639409 0.59723,0.769489 1.28691,1.451295 2.0255,2.082977 0.90821,0.718342 1.94986,1.244197 2.95965,1.80272 0.98589,0.550913 1.97332,1.098821 2.99924,1.572142 0.61895,0.266668 1.23378,0.54962 1.91341,0.580359 3.35954,-0.301596 6.59305,-1.547989 9.82884,-2.389689 0.23586,-0.06135 0.32928,-0.147117 0.53057,-0.279336 0.583,-0.148516 0.84995,-0.679391 1.28344,-1.010523 0.49234,-0.462409 0.67729,-0.745806 0.73115,-1.438915 0.003,-0.497332 -0.10935,-1.002187 -0.24894,-1.479221 -0.1576,-0.391307 -0.0704,-0.201049 -0.26072,-0.571102 0,0 -8.67654,2.39665 -8.67654,2.39665 v 0 c 0.14944,0.264334 0.0821,0.136552 0.2041,0.382244 0.0914,0.345583 0.1932,0.722752 0.14579,1.079149 -0.17838,0.362196 -0.54122,0.575569 -0.82276,0.855591 -0.35873,0.372082 -0.84019,0.537498 -1.29903,0.755916 -4.01927,1.24602 11.10876,-2.957607 7.52931,-1.850095 -0.10031,0.03102 -0.19265,0.08611 -0.29449,0.111575 -0.10799,0.02698 -0.22052,0.02987 -0.33079,0.0448 -0.023,0.0062 -0.51399,0.13951 -0.56007,0.145107 -0.42432,0.05153 -0.82352,-0.202234 -1.22232,-0.301836 -1.05617,-0.393936 -2.07581,-0.878661 -3.04351,-1.458456 -0.97133,-0.521408 -1.92633,-1.07843 -2.85612,-1.669891 -0.7363,-0.551823 -1.39442,-1.204221 -1.97843,-1.915063 -0.66666,-0.842809 -1.42219,-1.65332 -2.39671,-2.135483 -0.47437,-0.206053 -0.95556,-0.464755 -1.49309,-0.338415 -3.467,0.814913 -7.00547,1.514297 -10.40322,2.632982 -1.71411,0.573598 -3.43723,1.138759 -5.08085,1.89693 0,0 8.91464,-0.966414 8.91464,-0.966414 z" />
    <path
       style="fill:#008080;stroke-width:0.264583"
       id="path164"
       d="m 143.93422,23.159107 c 0.73557,-0.624931 1.49648,-1.108101 2.37679,-1.496818 5.1788,-1.349321 -11.21958,2.709106 -6.63504,1.694066 0.40057,-0.101892 0.80882,-0.13822 1.22039,-0.144647 0,0 8.38679,-3.248707 8.38679,-3.248707 v 0 c -0.4383,-0.07193 -0.87942,-0.125323 -1.32384,-0.06853 -0.56082,0.08618 -0.13688,0.0083 -0.67102,0.139413 -2.37374,0.582673 -6.92361,1.085261 -9.88388,2.613091 -0.84696,0.486643 -1.60086,1.108602 -2.36929,1.708184 0,0 8.8991,-1.19605 8.8991,-1.19605 z" />
    <path
       id="path166"
       style="fill:#008080;stroke-width:0.264583"
       d="m 131.98879,62.580534 -8.82535,1.512301 c -0.82596,1.742151 -1.54606,3.528286 -2.27644,5.311573 -0.68743,1.587008 -1.27842,3.211381 -1.81552,4.854404 -0.34729,1.019742 -0.64752,2.053957 -0.94162,3.089953 -0.15246,0.76364 -0.47849,1.454371 -0.81739,2.143464 -0.80981,-0.22623 -1.6186,-0.45583 -2.42974,-0.677351 -1.35204,-0.391984 -2.73078,-0.71086 -4.04779,-1.215847 -1.01825,-0.390429 -1.30183,-0.569283 -2.28821,-1.072222 -1.52682,-0.871841 -3.02447,-1.86231 -4.19486,-3.193585 -0.71891,-0.81773 -0.90603,-1.214942 -1.47728,-2.147321 -0.19629,-0.405744 -0.41482,-0.801591 -0.58893,-1.217322 -0.3564,-0.850929 -0.55672,-1.626817 -0.80545,-2.511318 -0.32071,-1.140472 -0.63191,-2.280414 -0.91007,-3.431952 -0.20813,-1.174651 -0.11582,-0.604227 -0.28039,-1.711126 l -8.582678,2.078451 c 0.227141,1.132284 0.103411,0.543041 0.372845,1.765547 0.715889,2.48327 1.31007,5.043155 2.461489,7.366812 0.235938,0.413084 0.448338,0.840805 0.707816,1.23953 1.267354,1.947502 3.110986,3.380479 5.085468,4.556938 0.83091,0.470153 1.41583,0.831273 2.28919,1.209576 1.27129,0.550673 2.62089,0.896333 3.94099,1.303524 0.52454,-0.113044 0.83606,-0.112837 1.01093,0.154508 0.1341,-0.04718 0.26667,-0.105065 0.40262,-0.131459 0.0462,-0.09851 0.16767,-0.131868 0.40981,-0.05898 0.0457,0.01363 0.0956,0.03116 0.14996,0.05259 0.13015,0.05132 0.25498,0.111462 0.37782,0.174822 0.0898,-0.0074 0.24495,0.0035 0.58867,0.0035 0.11695,-3e-6 0.21014,0.0078 0.28228,0.02223 0.31931,0.06372 0.22036,0.261102 -0.0213,0.500775 0.11289,0.07905 0.22505,0.159106 0.33775,0.239678 0.0589,0.0421 0.11087,0.08644 0.15957,0.131688 0.0131,0.0038 0.0262,0.0075 0.0393,0.01124 0.95693,0.274223 1.92108,0.554567 2.91514,0.652909 3.53632,0.323995 0.39197,0.08671 9.46241,-2.156625 0.54844,-0.135638 1.05646,-0.40643 1.51255,-0.733933 0.678,-0.628504 1.26723,-1.323013 1.62697,-2.186892 0.43958,-0.928301 0.86121,-1.860039 1.07893,-2.871111 0.29144,-1.016051 0.57765,-2.033436 0.87722,-3.047111 0.50963,-1.610408 1.07522,-3.202504 1.71695,-4.765445 0.73757,-1.791833 1.46601,-3.596944 2.49645,-5.246435 z m -17.0729,19.372238 c -0.3868,0.137678 -0.35166,0.100208 -0.77126,0.193086 -0.13059,0.0289 -0.51932,0.128001 -0.38961,0.0954 0.42294,-0.106271 0.76721,-0.190566 1.16087,-0.28849 z m -7.39695,0.04528 c -0.0252,0.01118 -0.10202,0.04043 -0.0753,0.03382 0.0277,-0.0068 0.0549,-0.01764 0.0823,-0.02643 -0.003,-0.003 -0.003,-0.0033 -0.007,-0.0074 z" />
    <path
       style="fill:#008080;stroke-width:0.264583"
       id="path168"
       d="m 117.79168,79.830899 c 0.95544,-0.405581 1.88106,-0.854729 2.7844,-1.367732 0.83157,-0.463163 1.64704,-0.971168 2.39018,-1.567598 0.79243,-0.461303 1.39477,-1.167647 2.02651,-1.81843 0.56605,-0.666117 1.03927,-1.407819 1.52833,-2.133409 0.34157,-0.660172 0.75747,-1.277934 1.08568,-1.947212 0.15118,-0.647972 0.58252,-1.116483 0.92732,-1.660015 0.6396,-0.761036 1.15113,-1.616195 1.76807,-2.396782 0.80063,-1.013213 1.48561,-2.118883 2.06563,-3.27167 0.4045,-0.823903 0.6912,-1.697555 0.94567,-2.577221 0.22074,-0.820077 0.46771,-1.632686 0.69829,-2.449957 0.18526,-0.654364 0.39003,-1.303108 0.56344,-1.960749 0.0346,-0.128158 0.0692,-0.256318 0.10287,-0.384753 0,0 -8.79625,1.713849 -8.79625,1.713849 v 0 c -0.0391,0.129294 -0.0782,0.258586 -0.11729,0.387881 -0.19971,0.649247 -0.36807,1.30744 -0.55213,1.961234 -0.22912,0.811201 -0.43721,1.628492 -0.69314,2.431963 -0.26013,0.820316 -0.53038,1.640385 -0.92911,2.406249 -0.59273,1.103405 -1.27765,2.149252 -2.07607,3.116557 -0.61413,0.829278 -1.23692,1.651918 -1.85212,2.479657 -0.3684,0.552978 -0.63799,1.142269 -0.90905,1.747134 -0.34248,0.625698 -0.69026,1.250621 -1.08441,1.845249 -0.45671,0.689401 -0.92317,1.381009 -1.51751,1.961192 -0.63152,0.632934 -1.32779,1.183572 -2.06901,1.682953 -0.76812,0.51909 -1.54841,1.017415 -2.37465,1.440741 -0.93206,0.484879 -1.89744,0.893084 -2.85948,1.314374 0,0 8.9444,-0.95334 8.9444,-0.95334 z" />
    <path
       id="path170"
       style="fill:#008080;stroke-width:0.264583"
       d="m 126.78373,77.785355 -8.89865,1.195677 c -0.4902,0.416972 -0.9595,0.859584 -1.49499,1.218969 0.81866,-0.199675 1.56281,-0.381147 1.88016,-0.45399 0.003,0.0045 5.2e-4,0.01066 -8e-5,0.01718 -0.0215,0.0057 -0.022,0.0063 -0.0461,0.0126 -0.43019,0.113307 -0.86156,0.222398 -1.29242,0.333065 -0.2077,0.05261 -0.39673,0.09044 -0.5675,0.108442 -0.0272,0.01802 -0.0529,0.03793 -0.0804,0.05547 0.15676,-0.03932 0.31349,-0.0787 0.47025,-0.118006 -0.15945,0.04083 -0.31868,0.08271 -0.47821,0.123253 -0.0161,0.01018 -0.0307,0.02225 -0.0469,0.03227 -0.20528,0.109312 -0.2504,0.132208 -0.30802,0.163381 -1.10628,0.272928 -2.81739,0.668022 -5.21654,1.197374 0.47316,-0.118483 0.94623,-0.237217 1.41935,-0.355854 -0.52154,0.128806 -1.04284,0.258961 -1.56418,0.38857 -0.19729,0.04346 -0.3024,0.06869 -0.51,0.114153 -1.78574,0.391089 3.17135,-0.844521 6.23771,-1.593055 -0.64395,0.05032 -1.10256,-0.142144 -1.89881,-0.502233 l -6.05894,2.061353 c 0.0196,0.0048 0.0372,0.0082 0.0587,0.01461 0.0457,0.01363 0.0956,0.03116 0.14997,0.05259 0.13014,0.05132 0.25497,0.111462 0.37782,0.174823 0.0898,-0.0074 0.24495,0.0035 0.58866,0.0035 0.11696,-3e-6 0.21014,0.0078 0.28229,0.02223 0.32007,0.06388 0.22116,0.261805 -0.02,0.501698 0.11244,0.07875 0.22414,0.158503 0.3364,0.238755 0.15397,0.110067 0.2706,0.232225 0.35799,0.360503 0.28672,-0.07085 0.44912,-0.111037 0.99247,-0.244783 0.78654,-0.125603 1.57334,-0.223774 2.36948,-0.242411 3.5817,-0.788938 7.51363,-0.875851 10.55736,-2.997754 0.85648,-0.556306 1.60031,-1.254437 2.40308,-1.882454 z m -10.49644,2.439505 c 0.0251,-0.002 0.0512,-0.0049 0.0769,-0.0076 0.009,-0.0057 0.0173,-0.01151 0.0259,-0.01729 -0.0333,0.0081 -0.069,0.01661 -0.10279,0.02486 z m -4.16353,1.090331 c 1.38503,-0.34206 2.76946,-0.685756 4.15208,-1.037171 0.003,-0.0017 0.005,-0.0035 0.008,-0.0052 -1.38663,0.347762 -2.77339,0.694715 -4.16003,1.042418 z m 3.05362,-0.384647 c -0.004,0.0019 -0.007,0.0043 -0.0104,0.0062 -0.18936,0.09716 -0.38194,0.203128 -0.59142,0.240813 -0.11324,0.02038 -0.45616,0.02438 -0.34483,-0.0047 0.33343,-0.08696 0.62655,-0.160079 0.94662,-0.242325 z m -6.99207,1.764639 c -0.0472,0.09322 -0.0743,0.214434 -0.0277,0.16999 0.0279,-0.02663 0.0456,-0.04664 0.0704,-0.07123 -0.015,-0.03343 -0.028,-0.06546 -0.0427,-0.09876 z m -0.41541,0.02405 c 0.0119,0.102799 0.0228,0.219591 0.0314,0.342794 0.0352,-0.05707 0.0697,-0.114313 0.0991,-0.173216 -0.0461,-0.06524 -0.0878,-0.115503 -0.13045,-0.169578 z" />
    <path
       id="path283"
       style="fill:#008080;fill-rule:evenodd;stroke-width:0.264583"
       d="m 181.85505,81.922706 -8.83682,1.725103 c -0.0983,0.347132 -0.1953,0.69444 -0.30133,1.03931 -0.18485,0.580705 -0.38757,1.159827 -0.70513,1.683764 -0.47886,0.729034 -1.00184,1.428158 -1.49435,2.147996 -0.58741,0.818407 -1.18599,1.63183 -1.93972,2.308603 -0.78376,0.690589 -1.60712,1.328381 -2.58003,1.734502 -0.0404,0.01693 -0.0812,0.03278 -0.12169,0.04955 0.0325,0.03401 0.0606,0.08285 0.0765,0.151447 0.0119,0.05139 0.0226,0.102987 0.0354,0.154195 0.032,0.01647 0.0648,0.03847 0.10537,0.0694 0.002,5.08e-4 0.002,6.19e-4 0.003,9.97e-4 0.002,0.0024 0.004,0.0041 0.007,0.0069 0.0207,0.0081 0.0415,0.016 0.0615,0.02566 0.0253,0.01225 0.0351,0.02346 0.0536,0.03254 0.009,2.52e-4 0.0175,0.0031 0.0256,0.0046 0.11668,0.02289 0.22936,0.06101 0.3433,0.09452 0.062,0.0177 0.12394,0.03493 0.18594,0.05269 0.0403,0.01169 0.0809,0.02319 0.12123,0.0347 0.003,8.52e-4 0.007,6.07e-4 0.009,0.0027 0.0165,0.01354 0.0324,0.02803 0.0488,0.0419 l 4.71606,-0.431167 c 1.09786,-0.297605 2.17572,-0.714572 3.1827,-1.244822 0.96679,-0.512647 1.82545,-1.231191 2.56422,-2.03413 0.74535,-0.737023 1.32735,-1.608844 1.9151,-2.470457 0.498,-0.753963 1.10905,-1.424655 1.52386,-2.230392 0.29802,-0.603396 0.50347,-1.245015 0.69636,-1.887844 0.10338,-0.35338 0.20352,-0.707987 0.30359,-1.062314 z M 166.10392,92.99447 c -5e-4,-1.88e-4 -10e-4,-2.45e-4 -0.002,-4.37e-4 0.004,0.0027 0.002,0.0022 0.006,0.005 0.002,0.0013 -0.003,-0.0027 -0.005,-0.0045 z m -0.002,-4.37e-4 c -0.006,-0.0041 -0.005,-0.0041 -0.009,-0.0075 -0.017,-0.0057 -0.0526,-0.01903 -0.0398,-0.01305 0.016,0.0076 0.0324,0.01405 0.049,0.02046 z m -0.47593,-0.280851 c -0.0281,0.01138 -0.0563,0.0226 -0.0844,0.03388 0.0142,0.004 0.0284,0.0084 0.0427,0.01223 0.0118,0.0036 0.0238,0.0079 0.0358,0.01191 -0.001,-0.02206 0.003,-0.03903 0.006,-0.05799 z m 0.39053,0.299403 c -2.7e-4,-7e-6 -9.1e-4,2.9e-4 -0.001,2.17e-4 0.001,0.0042 0.002,0.0087 0.004,0.01293 0.002,0.0044 0.001,-0.01279 -0.003,-0.01313 z m -0.0473,0.136973 c -0.0195,0.0047 -0.0387,0.01022 -0.0586,0.01331 -7.6e-4,0.0023 -0.001,0.0042 -0.002,0.0065 0.0148,0.0089 0.0163,0.0071 0.034,0.01832 0.01,-0.0116 0.0178,-0.02523 0.0265,-0.03811 z m -2.21794,0.415333 c -0.014,7.85e-4 -0.0273,0.0043 -0.0417,0.0047 -0.0228,3.77e-4 -0.0458,8.63e-4 -0.0689,1.85e-4 0.007,0.0051 0.0139,0.0094 0.0211,0.01462 0.03,-0.006 0.0594,-0.01411 0.0894,-0.01954 z" />
  </g>
</svg>
