<?xml version="1.0" encoding="UTF-8" standalone="no"?>
<svg
   xmlns:dc="http://purl.org/dc/elements/1.1/"
   xmlns:cc="http://creativecommons.org/ns#"
   xmlns:rdf="http://www.w3.org/1999/02/22-rdf-syntax-ns#"
   xmlns:svg="http://www.w3.org/2000/svg"
   xmlns="http://www.w3.org/2000/svg"
   xmlns:xlink="http://www.w3.org/1999/xlink"
   xmlns:sodipodi="http://sodipodi.sourceforge.net/DTD/sodipodi-0.dtd"
   xmlns:inkscape="http://www.inkscape.org/namespaces/inkscape"
   id="svg6783"
   viewBox="0 0 510.25 430.82"
   version="1.1"
   sodipodi:docname="Gold_Button_007-hover.svg"
   inkscape:version="1.0.2-2 (e86c870879, 2021-01-15)"
   inkscape:export-filename="D:\FILIP\PORGRAMOWANIE\WWW\SZKOÅA\lab25 20.04.2021 - inskape\button-hover.png"
   inkscape:export-xdpi="96"
   inkscape:export-ydpi="96">
  <sodipodi:namedview
     pagecolor="#ffffff"
     bordercolor="#666666"
     borderopacity="1"
     objecttolerance="10"
     gridtolerance="10"
     guidetolerance="10"
     inkscape:pageopacity="0"
     inkscape:pageshadow="2"
     inkscape:window-width="1004"
     inkscape:window-height="480"
     id="namedview23"
     showgrid="false"
     inkscape:zoom="0.69755438"
     inkscape:cx="201.60985"
     inkscape:cy="344.42116"
     inkscape:window-x="886"
     inkscape:window-y="48"
     inkscape:window-maximized="0"
     inkscape:current-layer="svg6783" />
  <defs
     id="defs6785">
    <filter
       id="filter4074"
       color-interpolation-filters="sRGB">
      <feGaussianBlur
         id="feGaussianBlur4076"
         stdDeviation="5.1052083" />
    </filter>
    <linearGradient
       id="linearGradient6713"
       y2="68.076"
       xlink:href="#linearGradient3865-3"
       gradientUnits="userSpaceOnUse"
       x2="170"
       gradientTransform="matrix(1.6556,0,0,4.8573648,-37.182,-280.4878)"
       y1="119.51"
       x1="170" />
    <linearGradient
       id="linearGradient3865-3">
      <stop
         id="stop3867-6"
         stop-color="#a80"
         offset="0" />
      <stop
         id="stop3869-4"
         stop-color="#a80"
         stop-opacity="0"
         offset="1" />
    </linearGradient>
    <radialGradient
       id="radialGradient6715"
       xlink:href="#linearGradient3865-3"
       gradientUnits="userSpaceOnUse"
       cy="364.5"
       cx="495.57"
       gradientTransform="matrix(0.15612,0.51126,-1.6354,0.4994,661.18,582.62)"
       r="138.1" />
    <linearGradient
       id="linearGradient7327"
       y2="163.43"
       gradientUnits="userSpaceOnUse"
       x2="173.75"
       gradientTransform="matrix(1.6556,0,0,1.6556,-37.182,-300.20599)"
       y1="344.25"
       x1="177.79">
      <stop
         id="stop3985-8"
         stop-color="#fff"
         stop-opacity="0"
         offset="0" />
      <stop
         id="stop3987-9"
         stop-color="#fff"
         offset="1" />
    </linearGradient>
    <radialGradient
       inkscape:collect="always"
       xlink:href="#linearGradient3865-3"
       id="radialGradient31"
       gradientUnits="userSpaceOnUse"
       gradientTransform="matrix(0.25847227,0.84644206,-2.7075682,0.82680664,1057.4676,-354.11233)"
       cx="495.57"
       cy="364.5"
       r="138.1" />
  </defs>
  <rect
     id="rect4029"
     opacity="0.47345"
     transform="matrix(1.6501034,0,0,1.6359315,-45.357353,-1302.8067)"
     ry="71.251999"
     filter="url(#filter4074)"
     width="280"
     y="820.01001"
     x="46.234001"
     height="230.52"
     style="display:inline;fill:#554400" />
  <rect
     id="rect4045"
     ry="117.96481"
     height="381.64893"
     width="463.56799"
     y="15.500364"
     x="24.311953"
     fill="#ffff00"
     style="display:inline;fill:#decd87;stroke-width:1.6556" />
  <path
     id="path4047"
     fill="url(#linearGradient6713)"
     d="M 333.98696,25.582976 C 266.54941,26.512016 199.04729,24.720177 131.63953,26.359038 75.981571,31.775831 28.626444,83.079894 30.258866,139.50771 c -0.954702,47.50413 0.413403,95.02978 -0.441698,142.53723 -0.879471,38.67316 17.332477,77.07306 49.787204,98.47186 24.641948,17.34406 55.338428,22.59562 84.940558,20.22977 74.39107,-0.48095 148.84837,1.22664 223.19144,-0.947 56.18278,-6.5037 102.85415,-60.33503 98.84925,-117.33908 0.57905,-51.94445 0.81952,-103.96671 -0.36132,-155.87639 -5.85635,-55.585119 -33.78417,-92.463609 -90.33781,-90.500067 -12.82097,-0.58292 -49.0753,-10.596006 -61.9062,-10.500146 z"
     style="display:inline;fill:url(#linearGradient6713);stroke-width:1.6556" />
  <path
     id="path4049"
     fill="url(#radialGradient6715)"
     d="M 333.98696,25.582976 C 266.54941,26.512016 199.04729,24.720177 131.63953,26.359038 75.981571,31.775831 28.626444,83.079894 30.258866,139.50771 c -0.954702,47.50413 0.413403,95.02978 -0.441698,142.53723 -0.879471,38.67316 17.332477,77.07306 49.787204,98.47186 24.641948,17.34406 55.338428,22.59562 84.940558,20.22977 74.39107,-0.48095 148.84837,1.22664 223.19144,-0.947 56.18278,-6.5037 102.85415,-60.33503 98.84925,-117.33908 0.57905,-51.94445 0.81952,-103.96671 -0.36132,-155.87639 -5.85635,-55.585119 -33.78417,-92.463609 -90.33781,-90.500067 -12.82097,-0.58292 -49.0753,-10.596006 -61.9062,-10.500146 z"
     style="display:inline;fill:url(#radialGradient31);stroke-width:1.6556" />
  <path
     id="path4051"
     opacity="0.78319"
     d="m 364.40034,20.202276 c -80.76348,1.536314 -161.6561,-1.933575 -242.33018,1.914205 -53.661303,9.20199 -95.541361,62.018776 -91.162299,116.512849 -0.936622,5.20156 -0.997366,14.51531 6.41545,14.33121 95.423819,40.51418 201.503079,45.93793 303.951609,41.65324 47.23923,-2.88224 94.399,-9.78775 140.05713,-21.99299 1.35869,-38.14337 1.65441,-81.495259 -24.93664,-111.287781 C 434.48023,34.457654 399.22919,18.962894 364.40696,20.201283 Z"
     fill="url(#linearGradient7327)"
     style="display:inline;fill:url(#linearGradient7327);stroke-width:1.6556" />
  <metadata
     id="metadata20">
    <rdf:RDF>
      <cc:Work>
        <dc:format>image/svg+xml</dc:format>
        <dc:type
           rdf:resource="http://purl.org/dc/dcmitype/StillImage" />
        <cc:license
           rdf:resource="http://creativecommons.org/publicdomain/zero/1.0/" />
        <dc:publisher>
          <cc:Agent
             rdf:about="http://openclipart.org/">
            <dc:title>Openclipart</dc:title>
          </cc:Agent>
        </dc:publisher>
        <dc:title></dc:title>
        <dc:date>2010-10-10T23:55:41</dc:date>
        <dc:description>Golden Buttons and Banners.</dc:description>
        <dc:source>http://openclipart.org/detail/89431/gold-button-007-by-inky2010</dc:source>
        <dc:creator>
          <cc:Agent>
            <dc:title>inky2010</dc:title>
          </cc:Agent>
        </dc:creator>
        <dc:subject>
          <rdf:Bag>
            <rdf:li>3D</rdf:li>
            <rdf:li>banner</rdf:li>
            <rdf:li>bend</rdf:li>
            <rdf:li>button</rdf:li>
            <rdf:li>clip art</rdf:li>
            <rdf:li>clipart</rdf:li>
            <rdf:li>gold</rdf:li>
            <rdf:li>golden</rdf:li>
            <rdf:li>header</rdf:li>
            <rdf:li>heading</rdf:li>
            <rdf:li>icon</rdf:li>
            <rdf:li>inkscape</rdf:li>
            <rdf:li>inky2010</rdf:li>
            <rdf:li>internet</rdf:li>
            <rdf:li>shadow</rdf:li>
            <rdf:li>vector</rdf:li>
            <rdf:li>web</rdf:li>
            <rdf:li>web page</rdf:li>
          </rdf:Bag>
        </dc:subject>
      </cc:Work>
      <cc:License
         rdf:about="http://creativecommons.org/licenses/publicdomain/">
        <cc:permits
           rdf:resource="http://creativecommons.org/ns#Reproduction" />
        <cc:permits
           rdf:resource="http://creativecommons.org/ns#Distribution" />
        <cc:permits
           rdf:resource="http://creativecommons.org/ns#DerivativeWorks" />
      </cc:License>
    </rdf:RDF>
  </metadata>
</svg>
